# xmcd
#
# Track frame offsets: 
#        150
#        11790
#        21343
#        35925
#        44407
#        55504
#        74578
#        84778
#        95262
#        105424
#        119146
#        133575
#        148980
#        161261
#        182245
#        193145
#        203727
#        215399
#
# Disc length: 3182 seconds
#
# Revision: 0
# Processed by: cddbd v1.5.2PL0 Copyright (c) Steve Scherf et al.
# Submitted via: ExactAudioCopy v0.99pb3
#
DISCID=090c6c12
DTITLE=Various Artist - White Lightnin'
DYEAR=2009
DGENRE=Acid
TTITLE0=No Title Yet Blues - Eric Weissberg and Marshall Brickman
TTITLE1=Tuff and Stringy - Nashville West
TTITLE2=Tango for a Sad Mood - The Roustabouts
TTITLE3=Buckaroo - The Roustabouts
TTITLE4=Tuff and Stringy - The Roustabouts
TTITLE5=Yesterday's Train - The Byrds
TTITLE6=Sally Goodin Meets the Byrds - The Byrds
TTITLE7=Oakridge Tennessee - Freddy Weller
TTITLE8=Louisiana Redbone - Freddy Weller
TTITLE9=Birmingham - Freddy Weller
TTITLE10=Freeborn Man - Freddy Weller
TTITLE11=Dear Landlord - Joe Cocker
TTITLE12=Cuckoo Bird - The Everly Brothers
TTITLE13=From Eden to Canaan - The Everly Brothers
TTITLE14=I'm on My Way Home Again- take 1 - The Everly Brothers
TTITLE15=I'm on My Way Home Again - The Everly Brothers
TTITLE16=White's Lightning - The Byrds
TTITLE17=Around the Barn - Clarence White and Gene Parsons
EXTD=
EXTT0=
EXTT1=
EXTT2=
EXTT3=
EXTT4=
EXTT5=
EXTT6=
EXTT7=
EXTT8=
EXTT9=
EXTT10=
EXTT11=
EXTT12=
EXTT13=
EXTT14=
EXTT15=
EXTT16=
EXTT17=
PLAYORDER=
